<?xml version="1.0" standalone="no"?>
<!DOCTYPE svg PUBLIC "-//W3C//DTD SVG 20010904//EN"
 "http://www.w3.org/TR/2001/REC-SVG-20010904/DTD/svg10.dtd">
<svg version="1.0" xmlns="http://www.w3.org/2000/svg"
 width="47.000000pt" height="38.000000pt" viewBox="0 0 47.000000 38.000000"
 preserveAspectRatio="xMidYMid meet">

<g transform="translate(0.000000,38.000000) scale(0.100000,-0.100000)"
fill="#000000" stroke="none">
<path d="M20 195 l0 -175 225 0 225 0 0 174 0 174 -27 -1 c-16 0 -22 -2 -15
-4 6 -3 12 -9 12 -14 0 -5 -10 -4 -22 3 -15 8 -76 13 -176 14 -178 2 -164 10
-177 -113 -5 -50 -11 -73 -20 -73 -10 0 -11 7 -5 30 5 18 5 32 -1 35 -5 4 -9
12 -8 18 0 9 2 9 6 0 10 -27 21 -11 21 34 1 27 -4 51 -11 56 -8 6 -6 7 6 3 9
-3 17 -1 17 4 0 6 -11 10 -25 10 l-25 0 0 -175z m270 149 c0 -11 -6 -15 -20
-11 -11 3 -20 1 -20 -4 0 -9 15 -13 34 -10 4 1 6 -13 3 -31 -4 -18 -9 -61 -13
-95 -4 -35 -11 -63 -15 -63 -5 0 -9 9 -9 19 0 11 -5 23 -12 27 -7 5 -9 2 -5
-9 5 -13 0 -15 -29 -10 -21 4 -40 1 -51 -8 -11 -9 -14 -10 -9 -1 4 7 2 12 -7
12 -10 0 -13 -7 -10 -19 5 -20 49 -26 60 -8 4 6 0 8 -10 4 -10 -3 -17 -2 -17
3 0 5 11 9 24 8 14 -1 23 -5 21 -8 -2 -4 5 -14 16 -23 21 -18 26 -9 7 12 -11
11 -9 11 10 1 20 -10 23 -18 20 -51 -3 -36 -1 -39 22 -40 23 -2 23 -2 3 -6
-12 -2 -30 0 -40 6 -10 6 -12 11 -5 11 17 0 15 40 -2 40 -8 0 -16 5 -18 12 -3
7 -23 11 -54 9 -49 -2 -50 -1 -52 28 -2 30 -2 30 55 33 49 3 58 6 55 21 -2 11
3 17 15 17 14 0 15 -2 4 -9 -10 -6 -10 -10 -1 -16 17 -11 21 -2 27 64 4 39 2
61 -5 61 -5 0 -8 -10 -6 -22 4 -21 4 -22 -5 -3 -16 33 -13 68 4 62 8 -4 17 -2
20 3 9 15 15 12 15 -6z m-60 -19 c0 -24 -3 -25 -55 -25 -37 0 -55 -4 -55 -12
0 -7 -3 -23 -6 -35 -6 -22 -3 -23 45 -23 48 0 51 -2 51 -25 0 -24 -3 -25 -54
-25 l-54 0 -4 -40 -4 -40 53 0 c50 0 53 -1 53 -25 0 -24 -2 -25 -75 -25 -41 0
-75 1 -75 3 0 1 9 65 20 142 11 77 20 143 20 148 0 4 32 7 70 7 68 0 70 -1 70
-25z m184 15 c14 -5 28 -19 30 -32 12 -58 15 -118 6 -118 -5 0 -7 7 -3 16 3 9
-6 4 -21 -10 l-26 -27 19 -57 c10 -31 14 -59 9 -60 -20 -8 -36 9 -43 45 -9 52
-22 73 -45 73 -14 0 -21 -9 -25 -38 -12 -72 -15 -82 -30 -82 -8 0 -15 8 -15
17 0 23 30 255 35 271 5 14 73 16 109 2z m43 -12 c-3 -8 -6 -5 -6 6 -1 11 2
17 5 13 3 -3 4 -12 1 -19z m-277 -53 c6 -3 10 -2 10 3 0 14 34 11 53 -6 9 -8
17 -25 17 -36 0 -17 -2 -18 -10 -6 -9 13 -11 13 -20 0 -6 -10 -10 -11 -10 -2
0 8 -16 12 -49 12 -46 0 -48 1 -44 24 5 24 26 28 53 11z m265 -108 c-14 -11
-15 -16 -5 -22 9 -6 11 -4 5 5 -6 9 -4 11 4 5 9 -5 10 -10 2 -18 -6 -6 -11
-18 -11 -26 0 -12 3 -13 8 -4 4 7 9 -7 10 -32 2 -45 1 -45 -31 -44 -30 2 -30
2 -4 6 30 5 30 13 1 95 -13 38 -9 45 25 47 11 1 10 -3 -4 -12z m-398 -32 c1
-19 -2 -37 -5 -39 -6 -3 -8 43 -4 67 4 17 8 4 9 -28z m313 5 c6 -11 8 -20 5
-20 -3 0 -1 -8 4 -18 6 -11 12 -30 14 -43 4 -20 1 -24 -18 -24 -13 0 -21 3
-18 8 6 10 -11 9 -25 -3 -8 -7 -9 -7 -3 1 5 6 7 26 4 44 -3 21 -1 35 8 40 9 6
11 4 6 -8 -3 -9 -2 -19 4 -23 19 -11 22 5 5 30 -18 29 -20 36 -6 36 5 0 14 -9
20 -20z m-318 -85 c3 -13 1 -22 -3 -19 -9 5 -13 44 -5 44 2 0 6 -11 8 -25z
m198 14 c0 -5 -4 -7 -10 -4 -5 3 -10 -3 -10 -14 0 -12 -4 -21 -9 -21 -4 0 -6
11 -3 25 4 24 32 36 32 14z m-102 -36 c-16 -2 -40 -2 -55 0 -16 2 -3 4 27 4
30 0 43 -2 28 -4z"/>
<path d="M337 294 c-4 -4 -6 -26 -6 -48 1 -39 2 -40 9 -11 7 27 15 18 11 -12
-2 -16 0 -16 34 -3 22 8 26 15 23 42 -3 29 -7 33 -33 36 -17 2 -34 0 -38 -4z
m38 -14 c-3 -5 -14 -10 -23 -9 -14 0 -13 2 3 9 27 11 27 11 20 0z m20 -38 c-5
-14 -7 -14 -15 -2 -5 9 -4 20 3 28 14 17 22 0 12 -26z"/>
<path d="M144 269 c-9 -16 2 -22 21 -11 15 8 16 10 1 15 -8 3 -18 2 -22 -4z"/>
<path d="M203 273 c-7 -2 -13 -8 -13 -13 0 -12 33 -5 38 8 4 12 -4 14 -25 5z"/>
<path d="M344 68 c6 -10 18 -18 26 -18 12 0 13 2 1 9 -7 5 -11 13 -8 18 3 5
-3 9 -12 9 -15 0 -16 -3 -7 -18z"/>
</g>
</svg>
